<svg width="1920" height="1080" viewBox="0 0 1920 1080" fill="none" xmlns="http://www.w3.org/2000/svg">
<defs>
<style>
.base { fill: #1a1a2e; }
.accent { fill: #e94560; opacity: 0.15; }
.highlight { fill: #ffd700; opacity: 0.12; }
.white { fill: #ffffff; opacity: 0.08; }
.pattern { fill: #ffffff; opacity: 0.03; }
</style>
<pattern id="grid" patternUnits="userSpaceOnUse" width="100" height="100">
<rect width="100" height="100" class="pattern"/>
<path d="M 100 0 L 0 0 0 100" fill="none" stroke="#ffffff" stroke-width="0.5" opacity="0.05"/>
</pattern>
</defs>

<!-- Base background -->
<rect width="1920" height="1080" class="base"/>
<rect width="1920" height="1080" fill="url(#grid)"/>

<!-- Design tools scattered across the background -->
<!-- Pencils -->
<rect x="200" y="150" width="120" height="8" rx="4" class="highlight" transform="rotate(25 260 154)"/>
<rect x="205" y="155" width="110" height="4" rx="2" class="accent" transform="rotate(25 260 157)"/>

<rect x="800" y="400" width="100" height="6" rx="3" class="white" transform="rotate(-15 850 403)"/>
<rect x="805" y="403" width="90" height="3" rx="1.5" class="accent" transform="rotate(-15 850 404.5)"/>

<!-- Rulers -->
<rect x="1200" y="200" width="200" height="20" rx="2" class="white" transform="rotate(45 1300 210)"/>
<rect x="1205" y="205" width="190" height="10" rx="1" class="accent" transform="rotate(45 1300 210)"/>

<!-- Color swatches -->
<circle cx="400" cy="300" r="30" class="accent"/>
<circle cx="450" cy="320" r="25" class="highlight"/>
<circle cx="380" cy="350" r="20" class="white"/>

<circle cx="1400" cy="600" r="35" class="highlight"/>
<circle cx="1450" cy="580" r="28" class="accent"/>
<circle cx="1380" cy="640" r="22" class="white"/>

<!-- Paper sheets -->
<rect x="600" y="500" width="150" height="200" rx="5" class="white" transform="rotate(10 675 600)"/>
<rect x="610" y="510" width="130" height="180" rx="3" class="accent" transform="rotate(10 675 600)"/>

<rect x="1000" y="700" width="120" height="160" rx="4" class="highlight" transform="rotate(-8 1060 780)"/>
<rect x="1008" y="708" width="104" height="144" rx="2" class="white" transform="rotate(-8 1060 780)"/>

<!-- Print rollers -->
<rect x="300" y="800" width="200" height="40" rx="20" class="accent" transform="rotate(5 400 820)"/>
<rect x="310" y="810" width="180" height="20" rx="10" class="highlight" transform="rotate(5 400 820)"/>

<!-- Design elements -->
<polygon points="150,600 200,550 250,600 200,650" class="accent"/>
<polygon points="1600,300 1650,250 1700,300 1650,350" class="highlight"/>

<!-- Geometric shapes -->
<rect x="100" y="400" width="80" height="80" rx="10" class="white" transform="rotate(30 140 440)"/>
<rect x="1500" y="800" width="60" height="60" rx="8" class="accent" transform="rotate(-20 1530 830)"/>

<!-- Brush strokes -->
<path d="M 500 100 Q 550 120 600 100 Q 650 80 700 100" stroke="#e94560" stroke-width="15" fill="none" opacity="0.2"/>
<path d="M 1100 900 Q 1150 880 1200 900 Q 1250 920 1300 900" stroke="#ffd700" stroke-width="12" fill="none" opacity="0.15"/>

<!-- Print dots pattern -->
<circle cx="800" cy="150" r="3" class="accent"/>
<circle cx="820" cy="160" r="3" class="accent"/>
<circle cx="840" cy="150" r="3" class="accent"/>
<circle cx="860" cy="160" r="3" class="accent"/>

<circle cx="1200" cy="500" r="4" class="highlight"/>
<circle cx="1220" cy="510" r="4" class="highlight"/>
<circle cx="1240" cy="500" r="4" class="highlight"/>
<circle cx="1260" cy="510" r="4" class="highlight"/>

<!-- Typography elements -->
<rect x="700" y="250" width="4" height="60" class="white"/>
<rect x="720" y="250" width="4" height="60" class="white"/>
<rect x="740" y="250" width="4" height="40" class="white"/>
<rect x="760" y="270" width="4" height="40" class="white"/>

<!-- Additional scattered elements -->
<circle cx="1600" cy="150" r="15" class="white"/>
<rect x="50" y="200" width="40" height="40" rx="5" class="highlight" transform="rotate(45 70 220)"/>
<polygon points="1800,400 1820,380 1840,400 1820,420" class="accent"/>
<circle cx="200" cy="900" r="25" class="highlight"/>
<rect x="1700" y="700" width="30" height="30" rx="3" class="white" transform="rotate(15 1715 715)"/>
</svg>